<mxfile pages="1"><diagram id="tfKe_wLez0hzin0b_gXy" name="Page-1"><mxGraphModel dx="734" dy="575" grid="1" gridSize="10" guides="1" tooltips="1" connect="1" arrows="1" fold="1" page="1" pageScale="1" pageWidth="827" pageHeight="1169" math="0" shadow="0"><root><mxCell id="0"/><mxCell id="1" parent="0"/><mxCell id="71" value="&lt;font style=&quot;font-size: 16px&quot;&gt;entity&lt;/font&gt;" style="rounded=0;whiteSpace=wrap;html=1;" vertex="1" parent="1"><mxGeometry x="310" y="140" width="120" height="60" as="geometry"/></mxCell><mxCell id="72" value="" style="triangle;whiteSpace=wrap;html=1;direction=north;" vertex="1" parent="1"><mxGeometry x="355" y="200" width="30" height="20" as="geometry"/></mxCell><mxCell id="73" value="&lt;font style=&quot;font-size: 16px&quot;&gt;course&lt;/font&gt;" style="rounded=0;whiteSpace=wrap;html=1;" vertex="1" parent="1"><mxGeometry x="320" y="320" width="100" height="50" as="geometry"/></mxCell><mxCell id="76" value="" style="endArrow=none;html=1;exitX=0.5;exitY=0;exitDx=0;exitDy=0;" edge="1" parent="1" source="73"><mxGeometry width="50" height="50" relative="1" as="geometry"><mxPoint x="320" y="270" as="sourcePoint"/><mxPoint x="370" y="220" as="targetPoint"/></mxGeometry></mxCell><mxCell id="77" value="courseID&lt;br&gt;questionList&lt;br&gt;testList" style="rounded=0;whiteSpace=wrap;html=1;" vertex="1" parent="1"><mxGeometry x="320" y="370" width="100" height="110" as="geometry"/></mxCell><mxCell id="78" value="" style="rhombus;whiteSpace=wrap;html=1;" vertex="1" parent="1"><mxGeometry x="420" y="405" width="20" height="20" as="geometry"/></mxCell><mxCell id="79" value="" style="endArrow=none;html=1;" edge="1" parent="1"><mxGeometry width="50" height="50" relative="1" as="geometry"><mxPoint x="440" y="415" as="sourcePoint"/><mxPoint x="520" y="415" as="targetPoint"/></mxGeometry></mxCell><mxCell id="80" value="Test" style="rounded=0;whiteSpace=wrap;html=1;" vertex="1" parent="1"><mxGeometry x="520" y="320" width="100" height="50" as="geometry"/></mxCell><mxCell id="81" value="testID&lt;br&gt;questionList&lt;br&gt;startTime&lt;br&gt;endTime" style="rounded=0;whiteSpace=wrap;html=1;" vertex="1" parent="1"><mxGeometry x="520" y="370" width="100" height="110" as="geometry"/></mxCell><mxCell id="83" value="&lt;font style=&quot;font-size: 16px&quot;&gt;question&lt;/font&gt;" style="rounded=0;whiteSpace=wrap;html=1;" vertex="1" parent="1"><mxGeometry x="520" y="50" width="100" height="50" as="geometry"/></mxCell><mxCell id="90" value="ID&lt;br&gt;correctAnswer&lt;br&gt;explain&lt;br&gt;description" style="rounded=0;whiteSpace=wrap;html=1;" vertex="1" parent="1"><mxGeometry x="520" y="100" width="100" height="91" as="geometry"/></mxCell><mxCell id="91" value="" style="rhombus;whiteSpace=wrap;html=1;" vertex="1" parent="1"><mxGeometry x="560" y="300" width="20" height="20" as="geometry"/></mxCell><mxCell id="92" value="" style="endArrow=none;html=1;entryX=0.5;entryY=1;entryDx=0;entryDy=0;" edge="1" parent="1" target="90"><mxGeometry width="50" height="50" relative="1" as="geometry"><mxPoint x="570" y="300" as="sourcePoint"/><mxPoint x="620" y="250" as="targetPoint"/></mxGeometry></mxCell></root></mxGraphModel></diagram></mxfile>